<svg xmlns="http://www.w3.org/2000/svg" xmlns:xlink="http://www.w3.org/1999/xlink" viewBox="0 0 151.87 151.87"><defs><style>.cls-1,.cls-4{fill:#fff;}.cls-2{fill:#f16857;}.cls-2,.cls-4{stroke:#fff;stroke-linecap:round;stroke-linejoin:round;stroke-width:4px;}.cls-3{mask:url(#mask);}</style><mask id="mask" x="2" y="2" width="147.87" height="147.87" maskUnits="userSpaceOnUse"><g id="mask-2"><circle id="path-1" class="cls-1" cx="75.94" cy="75.94" r="73.94"/></g></mask></defs><title>Asset 3</title><g id="Layer_2" data-name="Layer 2"><g id="Layer_1-2" data-name="Layer 1"><g id="Scenes"><g id="Sprite-Sheet-2"><g id="laravel-icon"><g id="Oval-2"><circle id="path-1-2" data-name="path-1" class="cls-2" cx="75.94" cy="75.94" r="73.94"/></g><g class="cls-3"><path id="Page-1" class="cls-4" d="M121.71,77.69c.11,0,.21-.06.32-.06,5.18-1.29,10.41-2.53,15.59-3.83a3,3,0,0,0,.65-.21c.48-.21.59-.48.21-.92-.06-.05-.11-.16-.16-.21-3.83-4.85-7.61-9.71-11.43-14.51a1.11,1.11,0,0,0-.21-.27,1.35,1.35,0,0,0-1.4-.43c-4.63.86-9.27,1.67-13.91,2.53-.54.11-1.13.16-1.67.33s-.54.32-.32.7a3.44,3.44,0,0,0,.37.54c3.88,5.28,7.71,10.62,11.6,15.9.11.11.21.27.38.43m-42.87,16a1.61,1.61,0,0,0,.27.43c3,5.23,6.09,10.52,9.17,15.75,1.19,2,2.43,4.09,3.67,6.15a10.09,10.09,0,0,0,.92,1.24,1.16,1.16,0,0,0,1.35.27,2.87,2.87,0,0,1,.64-.21q13.51-4.62,27-9.17c4.1-1.4,8.2-2.75,12.3-4.15a4,4,0,0,0,.7-.27c.43-.21.48-.43.21-.81s-.38-.6-.54-.86c-1.62-2.27-3.29-4.48-4.91-6.74-2.69-3.67-5.34-7.33-8-11a11.64,11.64,0,0,0-.7-1,.85.85,0,0,0-1-.32c-.33.11-.59.16-.92.27l-13.1,3.39C97.07,89,88.27,91.28,79.48,93.54a1.47,1.47,0,0,0-.65.16M37.42,35c-1.73.16-3.45.33-5.23.43l-5.45.48c-2.26.21-4.58.38-6.85.59-1.51.11-3,.27-4.53.38-.38.06-.48.16-.43.54a2,2,0,0,0,.22.59,9.56,9.56,0,0,0,.54,1.08Q26.12,60.51,36.51,82c2.26,4.64,4.48,9.27,6.69,13.91a.43.43,0,0,0,.54.32A6.24,6.24,0,0,0,44.81,96c7.44-1.78,14.83-3.56,22.27-5.28.76-.16,1.57-.38,2.32-.54.54-.16.7-.43.49-1a3,3,0,0,0-.38-.7Q54.22,62.15,39,35.84c-.54-.91-.54-.91-1.57-.86m54,89.68a5.87,5.87,0,0,1-3.07-2.75c-1.08-1.78-2.21-3.56-3.24-5.4-3.88-7-7.76-13.86-11.65-20.81a5.09,5.09,0,0,1-.32-.54l-1.89.48-25.67,6.64a11.83,11.83,0,0,1-3,.54,5.24,5.24,0,0,1-4.69-2.64,6.31,6.31,0,0,1-.65-1.35q-11.81-25.48-23.57-51c-1.4-3-2.81-6.09-4.15-9.12-.32-.76-.54-1.56-.86-2.37L8.47,36V35c.05-.16.16-.27.21-.43a1.68,1.68,0,0,1,1-1,3,3,0,0,1,1.13-.26c2-.22,4.1-.38,6.15-.54l8.47-.65c3.61-.27,7.28-.59,10.89-.86A15.84,15.84,0,0,0,38,31h1.84c.11.05.21.05.32.11a2.66,2.66,0,0,1,2,1.3l1.3,1.94Q59.48,61.24,75.55,88c.11.16.21.38.38.59,13.75-3.29,27.5-6.58,41.36-9.92-.16-.22-.22-.38-.33-.48L103.75,59.51a3.39,3.39,0,0,1-.43-.75,1,1,0,0,1,.48-1.51,6.88,6.88,0,0,1,1.51-.54l7.55-1.3c3.34-.54,6.69-1.13,10-1.67.86-.16,1.67-.27,2.53-.38a3,3,0,0,1,2.1.54,12.75,12.75,0,0,1,1.73,1.67L139.4,68.2c1.78,2.22,3.61,4.43,5.4,6.64a3.15,3.15,0,0,1,.38.54v.86a2.3,2.3,0,0,1-1.45.86c-6,1.62-12,3.18-18,4.8-.16.06-.38.11-.59.16.16.21.21.32.33.48l8.19,10.95c2.75,3.66,5.45,7.33,8.15,11a6.5,6.5,0,0,1,.59,1,1.1,1.1,0,0,1-.43,1.56,3.46,3.46,0,0,1-1.19.59c-1.35.54-2.69,1-4,1.51l-33.33,12c-2.69,1-5.39,1.88-8.14,2.8-.7.21-1.45.38-2.16.59a9.33,9.33,0,0,1-1.73.11"/></g></g></g></g></g></g></svg>