
<svg width="214px" height="40px" viewBox="0 0 214 40" version="1.1" xmlns="http://www.w3.org/2000/svg" xmlns:xlink="http://www.w3.org/1999/xlink">
    <g id="Page-1" stroke="none" stroke-width="1" fill="none" fill-rule="evenodd">
        <g id="logo">
            <g id="Group" transform="translate(41.000000, 10.000000)" fill="#222222">
                <path d="M6.912,5.568 C7.968,5.568 8.9,5.828 9.708,6.348 C10.516,6.868 11.144,7.6 11.592,8.544 C12.04,9.488 12.264,10.584 12.264,11.832 C12.264,13.08 12.036,14.188 11.58,15.156 C11.124,16.124 10.492,16.872 9.684,17.4 C8.876,17.928 7.952,18.192 6.912,18.192 C6.016,18.192 5.22,18 4.524,17.616 C3.84831123,17.2528102 3.29980002,16.6917377 2.952,16.008 L2.952,18 L0,18 L0,0.336 L2.976,0.336 L2.976,7.704 C3.33927755,7.0366485 3.88990527,6.4901922 4.56,6.132 C5.248,5.756 6.032,5.568 6.912,5.568 Z M6.12,15.84 C7.112,15.84 7.88,15.488 8.424,14.784 C8.968,14.08 9.24,13.096 9.24,11.832 C9.24,10.584 8.968,9.62 8.424,8.94 C7.88,8.26 7.104,7.92 6.096,7.92 C5.088,7.92 4.312,8.264 3.768,8.952 C3.224,9.64 2.952,10.616 2.952,11.88 C2.952,13.16 3.224,14.14 3.768,14.82 C4.312,15.5 5.096,15.84 6.12,15.84 Z M20.376,18.192 C19.144,18.192 18.06,17.936 17.124,17.424 C16.2004402,16.9246825 15.4479849,16.1596863 14.964,15.228 C14.46,14.276 14.208,13.16 14.208,11.88 C14.208,10.6 14.46,9.484 14.964,8.532 C15.4479849,7.60031373 16.2004402,6.83531747 17.124,6.336 C18.06,5.824 19.144,5.568 20.376,5.568 C21.592,5.568 22.664,5.824 23.592,6.336 C24.5104086,6.83815851 25.2582579,7.60271959 25.74,8.532 C26.244,9.484 26.496,10.6 26.496,11.88 C26.496,13.16 26.244,14.276 25.74,15.228 C25.2582579,16.1572804 24.5104086,16.9218415 23.592,17.424 C22.664,17.936 21.592,18.192 20.376,18.192 Z M20.352,15.84 C21.376,15.84 22.156,15.508 22.692,14.844 C23.228,14.18 23.496,13.192 23.496,11.88 C23.496,10.584 23.224,9.596 22.68,8.916 C22.136,8.236 21.368,7.896 20.376,7.896 C19.368,7.896 18.592,8.236 18.048,8.916 C17.504,9.596 17.232,10.584 17.232,11.88 C17.232,13.192 17.5,14.18 18.036,14.844 C18.572,15.508 19.344,15.84 20.352,15.84 Z M40.68,5.88 L40.68,18 L37.728,18 L37.728,16.056 C37.3647224,16.7233515 36.8140947,17.2698078 36.144,17.628 C35.456,18.004 34.672,18.192 33.792,18.192 C32.736,18.192 31.8,17.936 30.984,17.424 C30.168,16.912 29.536,16.184 29.088,15.24 C28.64,14.296 28.416,13.2 28.416,11.952 C28.416,10.704 28.644,9.596 29.1,8.628 C29.556,7.66 30.192,6.908 31.008,6.372 C31.824,5.836 32.752,5.568 33.792,5.568 C34.672,5.568 35.456,5.756 36.144,6.132 C36.832,6.508 37.36,7.032 37.728,7.704 L37.728,5.88 L40.68,5.88 Z M34.608,15.84 C35.6,15.84 36.368,15.496 36.912,14.808 C37.456,14.12 37.728,13.152 37.728,11.904 C37.728,10.624 37.456,9.64 36.912,8.952 C36.368,8.264 35.592,7.92 34.584,7.92 C33.592,7.92 32.82,8.276 32.268,8.988 C31.716,9.7 31.44,10.688 31.44,11.952 C31.44,13.2 31.716,14.16 32.268,14.832 C32.82,15.504 33.6,15.84 34.608,15.84 Z M50.472,5.592 C50.936,5.592 51.336,5.656 51.672,5.784 L51.648,8.52 C51.1453581,8.313833 50.6072805,8.20784804 50.064,8.208 C49.04,8.208 48.26,8.504 47.724,9.096 C47.188,9.688 46.92,10.472 46.92,11.448 L46.92,18 L43.944,18 L43.944,9.312 C43.944,8.032 43.88,6.888 43.752,5.88 L46.56,5.88 L46.8,8.016 C47.104,7.232 47.584,6.632 48.24,6.216 C48.896,5.8 49.64,5.592 50.472,5.592 Z M64.704,0.336 L64.704,18 L61.752,18 L61.752,16.056 C61.3887224,16.7233515 60.8380947,17.2698078 60.168,17.628 C59.48,18.004 58.696,18.192 57.816,18.192 C56.776,18.192 55.848,17.928 55.032,17.4 C54.216,16.872 53.58,16.124 53.124,15.156 C52.668,14.188 52.44,13.08 52.44,11.832 C52.44,10.584 52.664,9.488 53.112,8.544 C53.56,7.6 54.192,6.868 55.008,6.348 C55.824,5.828 56.76,5.568 57.816,5.568 C58.68,5.568 59.452,5.748 60.132,6.108 C60.7941697,6.45077102 61.3408663,6.98077458 61.704,7.632 L61.704,0.336 L64.704,0.336 Z M58.608,15.84 C59.6,15.84 60.372,15.496 60.924,14.808 C61.476,14.12 61.752,13.144 61.752,11.88 C61.752,10.616 61.48,9.64 60.936,8.952 C60.392,8.264 59.624,7.92 58.632,7.92 C57.624,7.92 56.844,8.26 56.292,8.94 C55.74,9.62 55.464,10.584 55.464,11.832 C55.464,13.096 55.74,14.08 56.292,14.784 C56.844,15.488 57.616,15.84 58.608,15.84 Z" id="Shape" fill-rule="nonzero"></path>
                <g transform="translate(70.000000, 3.000000)" font-family="Helvetica" font-size="12" font-weight="normal" id="manage-task-easily" stroke="#979797">
                    <text>
                        <tspan x="0.117" y="11">manage task easily</tspan>
                    </text>
                </g>
            </g>
            <polyline id="Path" stroke-opacity="0.218" stroke="#222222" stroke-width="0.5" points="3.454 33 0 35.784 6.598 36.636 3.299 39 17 36.636"></polyline>
            <path d="M33.273,-4.4408921e-16 C18.487,-4.4408921e-16 6.326,11.078 5.037,25.157 C7.494,21.783 10.503,18.536 14.26,14.803 C14.5437329,14.5216482 14.9998527,14.5172155 15.289,14.793 C15.575,15.066 15.579,15.515 15.299,15.794 C14.392751,16.6945257 13.4966939,17.6052503 12.611,18.526 L12.436,18.71 C7.793,23.552 4.474,27.767 2.064,33.001 C1.98559908,33.1733474 1.98014252,33.3700569 2.0488687,33.5464855 C2.11759488,33.7229141 2.25467543,33.8640996 2.429,33.938 C2.7935064,34.0975259 3.21890913,33.9402638 3.392,33.582 C4.24370458,31.7491574 5.23809774,29.9860656 6.366,28.309 C16.525,28.056 25.772,22.552 30.618,13.794 C30.7389669,13.5747749 30.7328571,13.3074691 30.602,13.094 C30.4667438,12.8794218 30.2306489,12.7494752 29.977,12.75 L27.283,12.75 L32.113,10.061 C32.2654616,9.97723097 32.3820963,9.84068304 32.441,9.677 C33.4668263,6.79771621 33.9940524,3.76456006 34,0.708 C33.9945135,0.311838797 33.6691676,-0.00500427489 33.273,-4.4408921e-16 Z" id="Path" fill="#47D5FE"></path>
        </g>
    </g>
</svg>